<svg width="386" height="280" viewBox="0 0 386 280" fill="none" xmlns="http://www.w3.org/2000/svg">
<path d="M29.4 229H37.26V265H29.1L11.46 241.12V265H3.54V229H11.7L29.4 252.82V229ZM71.175 235.96H57.435V243.52H69.195V250.48H57.435V258.04H71.175V265H49.515V229H71.175V235.96ZM96.7125 265.48C88.3125 265.48 81.7725 260.26 81.7725 253.48V229H89.6925V251.98C89.6925 255.64 92.7525 258.46 96.7125 258.46C100.732 258.46 103.792 255.64 103.792 251.98V229H111.712V253.48C111.712 260.26 105.232 265.48 96.7125 265.48ZM142.189 250.18L152.269 265H143.389L134.509 251.08H131.329V265H123.409V229H138.709C144.889 229 149.449 233.92 149.449 240.04C149.449 244.96 146.449 248.92 142.189 250.18ZM137.509 244.54C140.029 244.54 141.889 242.8 141.889 240.28C141.889 237.82 140.029 236.02 137.509 236.02H131.329V244.54H137.509ZM177.478 265.48C167.278 265.48 158.998 257.2 158.998 247C158.998 236.8 167.278 228.52 177.478 228.52C187.738 228.52 195.958 236.8 195.958 247C195.958 257.2 187.738 265.48 177.478 265.48ZM177.478 257.74C183.598 257.74 188.218 253.06 188.218 247C188.218 240.94 183.598 236.26 177.478 236.26C171.418 236.26 166.798 240.94 166.798 247C166.798 253.06 171.418 257.74 177.478 257.74ZM237.936 229H246.456V265H238.536V243.58L228.756 265H224.196L214.476 243.52V265H206.556V229H215.136L226.476 253.9L237.936 229ZM280.284 235.96H266.544V243.52H278.304V250.48H266.544V258.04H280.284V265H258.624V229H280.284V235.96ZM291.062 265V229H302.942C312.842 229 320.942 237.04 320.942 247C320.942 256.96 312.842 265 302.942 265H291.062ZM298.982 257.98H302.882C308.582 257.98 313.022 253.24 313.022 247C313.022 240.76 308.582 236.02 302.882 236.02H298.982V257.98ZM331.787 265V229H339.707V265H331.787ZM380.949 265H371.889L364.269 252.94L356.649 265H347.529L360.009 246.46L348.249 229H357.309L364.269 239.92L371.229 229H380.289L368.529 246.4L380.949 265Z" fill="white"/>
<path d="M215.555 65.5013C213.955 57.5013 208.055 45.8348 205.555 41.5015L247.055 41.5013C260.555 40.5015 269.455 44.5013 279.055 52.5013C291.055 62.5013 306.055 95.5013 290.555 125.001C278.155 148.601 258.388 153.501 250.055 153.001H202.555C206.955 147.001 213.055 133.835 215.555 128.001H250.055C288.555 119.501 274.055 65.5013 247.055 65.5013H215.555Z" fill="white"/>
<path d="M149.554 41.0016C154.354 45.8016 160.554 59.3349 163.054 65.5016H138.055C128.855 65.5016 121.888 71.1682 119.555 74.0015C109.055 88.0015 110.555 99.0015 114.055 111.501C120.055 126.301 132.555 129.335 138.055 129.001H160.555C158.555 137.001 149.722 148.335 145.555 153.001H133.054C129.555 153.001 119.855 154.201 105.054 141.001C77.0542 115.001 89.0542 75.0016 102.054 57.5016C112.454 43.5016 127.054 40.6682 133.054 41.0016H149.554Z" fill="white"/>
<path d="M99.0547 0C183.555 9 224.055 157 99.0547 189C215.555 212.002 271.555 3.00146 99.0547 0Z" fill="white"/>
</svg>
